<?xml version="1.0" encoding="utf-8"?>
<!-- Generator: Adobe Illustrator 17.0.2, SVG Export Plug-In . SVG Version: 6.00 Build 0)  -->
<!DOCTYPE svg PUBLIC "-//W3C//DTD SVG 1.1//EN" "http://www.w3.org/Graphics/SVG/1.1/DTD/svg11.dtd">
<svg version="1.1" id="Ebene_1" xmlns="http://www.w3.org/2000/svg" xmlns:xlink="http://www.w3.org/1999/xlink" x="0px" y="0px"
	 width="191.807px" height="191.807px" viewBox="0 0 191.807 191.807" enable-background="new 0 0 191.807 191.807"
	 xml:space="preserve">
<path fill="#64E270" d="M101.629,67.011v2.185c0,1.597-0.539,2.949-1.613,4.058c-1.076,1.11-2.393,1.665-3.954,1.665
	s-2.897-0.555-4.005-1.665c-1.111-1.109-1.665-2.461-1.665-4.058v-2.185c0-1.525,0.554-2.843,1.665-3.954
	c1.108-1.108,2.444-1.664,4.005-1.664s2.877,0.538,3.954,1.613C101.09,64.082,101.629,65.417,101.629,67.011z M92.005,83.918
	c1.074-1.074,2.409-1.613,4.005-1.613c1.595,0,2.93,0.538,4.006,1.613c1.074,1.076,1.613,2.445,1.613,4.11v40.575
	c0,1.596-0.539,2.931-1.613,4.005c-1.076,1.076-2.393,1.613-3.954,1.613s-2.897-0.554-4.005-1.665
	c-1.111-1.108-1.665-2.427-1.665-3.953V88.027C90.393,86.363,90.929,84.994,92.005,83.918z M94.902,170.251
	c-39.945,0-72.443-32.499-72.443-72.444s32.497-72.444,72.443-72.444s72.445,32.499,72.445,72.444S134.847,170.251,94.902,170.251z
	 M94.902,34.226c-35.057,0-63.58,28.523-63.58,63.581s28.523,63.581,63.58,63.581c35.059,0,63.582-28.523,63.582-63.581
	S129.962,34.226,94.902,34.226z"/>
</svg>
